<svg width="400" height="400" viewBox="0 0 400 400" fill="none" xmlns="http://www.w3.org/2000/svg">
  <rect width="400" height="400" fill="#1F2937"/>
  <path d="M200 150C177.909 150 160 167.909 160 190C160 212.091 177.909 230 200 230C222.091 230 240 212.091 240 190C240 167.909 222.091 150 200 150ZM200 210C188.954 210 180 201.046 180 190C180 178.954 188.954 170 200 170C211.046 170 220 178.954 220 190C220 201.046 211.046 210 200 210Z" fill="#4B5563"/>
  <path d="M140 120V280H260V120H140ZM240 260H160V140H240V260Z" fill="#4B5563"/>
</svg> 